{"title":"Marmaduke R5 CAM AUDIO XViD - IMAGiNE","uid":5669306,"size":1482086568,"categoryP":"video","categoryS":"movies","magnet":"?xt=urn:btih:4d25bf05acb19e4681a2823f2f36aa5eca29473f&amp;dn=Marmaduke+R5+CAM+AUDIO+XViD+-+IMAGiNE&amp;tr=udp%3A%2F%2Ftracker.openbittorrent.com%3A80&amp;tr=udp%3A%2F%2Fopen.demonii.com%3A1337&amp;tr=udp%3A%2F%2Ftracker.coppersurfer.tk%3A6969&amp;tr=udp%3A%2F%2Fexodus.desync.com%3A6969","seeders":0,"leechers":1,"uploader":"gentox","files":2,"time":1278284541,"description":"*********** ****    ****      ***      ******** *********** ****    *** **********\n           *+*     +*+*+* *+*+*+   *+* *+*   *+*    *+*    *+*     *+*+*   *+* *+*        \n           +*+     +*+ +*+*+ +*+  +*+   +*+  +*+           +*+     *+*+*+  +*+ +*+        \n           +$+     +$+  +*+  +$+ +$++*++$++* *$*           +$+     +$+ +*+ +$+ +$++*++$  \n           +$+     +$+       +$+ +$+     +$+ +$+   +$+$    +$+     +$+  +$+$+$ +$+        \n           $+$     $+$       $+$ $+$     $+$ $+$    $+$    $+$     $+$   $+$+$ $+$        \n       $$$$$$$$$$$ $$$       $$$ $$$     $$$  $$$$$$$$ $$$$$$$$$$$ $$$    $$$$ $$$$$$$$$$     \n                                                \n\n\n\n                           Another Fine Release Brought to you from - IMAGiNE                   \n                                                 \n\n********************************************************************************************************************                                \n                                   Marmaduke R5 CAM AUDIO XViD - IMAGiNE\n********************************************************************************************************************\n\nRipper ...........: IMAGiNE                                        IMDB Rating.......:1.9/10                             \nVideo Codec.......: XVID                                         Release Date......:04/07/10\nAudio Codec.......:MP3                                           Theatre Date......:04/06/10\nAudio Bitrate.....:128                                              Runtime.......:1h 24mn\nSubtitles.........:NIL                                                 Language..........:ENGLISH\nResolution...... 720 x 304                                      IMDb URL..........:http://www.imdb.com/title/tt1392197/\n\n\n[color=yellow]DETAILS:[/color]\n\nVideo\nID                               : 0\nFormat                           : MPEG-4 Visual\nFormat profile                   : Advanced Simple@L5\nFormat settings, BVOP            : Yes\nFormat settings, QPel            : No\nFormat settings, GMC             : No warppoints\nFormat settings, Matrix          : Default (MPEG)\nMuxing mode                      : Packed bitstream\nCodec ID                         : XVID\nCodec ID/Hint                    : XviD\nDuration                         : 1h 23mn\nBit rate                         : 2 182 Kbps\nWidth                            : 720 pixels\nHeight                           : 304 pixels\nDisplay aspect ratio             : 2.35\nFrame rate                       : 25.000 fps\nResolution                       : 24 bits\nColorimetry                      : 4:2:0\nScan type                        : Progressive\nBits/(Pixel*Frame)               : 0.399\nStream size                      : 1.29 GiB (94%)\nWriting library                  : XviD 1.2.1 (UTC 2008-12-04)\n\nAudio\nFormat                           : MPEG Audio\nFormat version                   : Version 1\nFormat profile                   : Layer 3\nDuration                         : 1h 24mn\nBit rate mode                    : Constant\nBit rate                         : 128 Kbps\nChannel(s)                       : 2 channels\nSampling rate                    : 44.1 KHz\nResolution                       : 16 bits\nStream size                      : 77.4 MiB (100%)\n\n\n[color=yellow]NOTES:[/color]\n\nIMAGiNE bringing you another release.....Marmaduke R5\n\nSources used ,the russian R5 dvdr,our audio and the audio off the dvdr.....Thanks for the r5 guys :)\nWell all we've done is ripped the r5 dvdr which was pretty good,however thought the colours were too strong and slightly\noff so balanced that out and then it was a case of just doing the normal cropping and resizing and also used a sharpen filter but \nonly.20 so not much really.\nThe audio we have opted to use the first 53 secs and all the end credits audio off the original ac3 track that was on the russian dvd and then \nfor the main film it is our cam audio we used before.\nAt the mo no sign of any line.....even though we've had a few messages about it ,but nothing solid as come through as of yet.....and if it does then \nwe shall do a v2.\n\nEnjoy :)\n\n\n[color=yellow]SCREENS:[/color]\n\nscreen shot off the first 15mins:\n[img]http://imagine.takagari.com/MARMADUKE%20R5/vlcsnap-108129.png[/img]\n[img]http://imagine.takagari.com/MARMADUKE%20R5/vlcsnap-108395.png[/img]\n[img]http://imagine.takagari.com/MARMADUKE%20R5/vlcsnap-108553.png[/img]\n[img]http://imagine.takagari.com/MARMADUKE%20R5/vlcsnap-110205.png[/img]\n\n\n[color=yellow]GREETS:[/color]\n\nFLAWL3SS,ViSiON,FUSiON,Rx,SecretMyth,BirdFlu,ELEKTRI4KA and Autotron\nAnd to all the other p2p grps past and present \n\nSpecial thanks to Python-Lair for the server :)\nAnd special thanks to supreme-speeds.com for the ripbox :)\nAlso to The Scene Nation for all their help :)\n\n[COLOR=RED]Looking for these,syncers,cammers,silver supplier.....Have anything to offer????......\nContact us &lt;a class=&quot;__cf_email__&quot; href=&quot;/cdn-cgi/l/email-protection&quot; data-cfemail=&quot;ea83878b8d83848f8d98859f9aaa829f9982878b8386c4898587&quot;&gt;[email&amp;#160;protected]&lt;/a&gt;&lt;script cf-hash='f9e31' type=&quot;text/javascript&quot;&gt;\n/* &lt;![CDATA[ */!function(){try{var t=&quot;currentScript&quot;in document?document.currentScript:function(){for(var t=document.getElementsByTagName(&quot;script&quot;),e=t.length;e--;)if(t[e].getAttribute(&quot;cf-hash&quot;))return t[e]}();if(t&amp;&amp;t.previousSibling){var e,r,n,i,c=t.previousSibling,a=c.getAttribute(&quot;data-cfemail&quot;);if(a){for(e=&quot;&quot;,r=parseInt(a.substr(0,2),16),n=2;a.length-n;n+=2)i=parseInt(a.substr(n,2),16)^r,e+=String.fromCharCode(i);e=document.createTextNode(e),c.parentNode.replaceChild(e,c)}}}catch(u){}}();/* ]]&gt; */&lt;/script&gt;[/COLOR]\n","torrent":{"xt":"urn:btih:4d25bf05acb19e4681a2823f2f36aa5eca29473f","amp;dn":"Marmaduke+R5+CAM+AUDIO+XViD+-+IMAGiNE","amp;tr":["udp%3A%2F%2Ftracker.openbittorrent.com%3A80","udp%3A%2F%2Fopen.demonii.com%3A1337","udp%3A%2F%2Ftracker.coppersurfer.tk%3A6969","udp%3A%2F%2Fexodus.desync.com%3A6969"],"infoHash":"4d25bf05acb19e4681a2823f2f36aa5eca29473f","infoHashBuffer":{"type":"Buffer","data":[77,37,191,5,172,177,158,70,129,162,130,63,47,54,170,94,202,41,71,63]},"announce":[],"urlList":[]}}